<svg width="32" height="32" viewBox="0 0 32 32" fill="none" xmlns="http://www.w3.org/2000/svg">
<rect x="0.267593" y="0.276569" width="24.9048" height="24.9048" rx="12.4524" transform="matrix(1 0 -0.0329807 0.999456 3.41732 3.55288)" stroke="white" stroke-width="0.553439"/>
<g filter="url(#filter0_f_202_199)">
<rect x="0.267593" y="0.276569" width="24.9048" height="24.9048" rx="12.4524" transform="matrix(1 0 -0.0329807 0.999456 3.54232 3.55288)" stroke="white" stroke-width="0.553439"/>
</g>
<g clip-path="url(#clip0_202_199)">
<path d="M20.589 12.0641C19.7501 11.6824 18.8467 11.4003 17.8975 11.2399C17.889 11.2383 17.8802 11.2393 17.8722 11.2429C17.8642 11.2465 17.8574 11.2524 17.8528 11.2598C17.7292 11.4639 17.5902 11.73 17.492 11.9402C16.4847 11.7899 15.4555 11.7899 14.4382 11.9402C14.3443 11.7072 14.2371 11.4801 14.1173 11.2598C14.1132 11.2523 14.1069 11.2462 14.0992 11.2425C14.0914 11.2387 14.0827 11.2374 14.074 11.2388C13.1148 11.3992 12.1927 11.6813 11.3281 12.0635C11.3206 12.0666 11.3142 12.0718 11.3098 12.0785C9.49427 14.6091 8.93809 17.0772 9.09086 19.5143C9.09131 19.5203 9.09299 19.5261 9.09578 19.5313C9.09857 19.5365 9.10243 19.5411 9.10711 19.5447C10.0939 20.2762 11.203 20.8334 12.3881 21.1931C12.3964 21.1956 12.4053 21.1956 12.4137 21.1931C12.4221 21.1905 12.4297 21.1855 12.4353 21.1787C12.7038 20.8358 12.945 20.4734 13.1535 20.0929C13.1659 20.0708 13.1557 20.0442 13.1326 20.0354C12.7775 19.9008 12.4345 19.7384 12.1067 19.5497C12.1009 19.5463 12.096 19.5415 12.0925 19.5356C12.089 19.5298 12.0871 19.5232 12.0869 19.5163C12.0867 19.5095 12.0882 19.5026 12.0913 19.4964C12.0943 19.4901 12.0989 19.4847 12.1046 19.4806C12.1764 19.4291 12.2483 19.3755 12.3168 19.3218C12.323 19.317 12.3304 19.3139 12.3381 19.3129C12.3458 19.312 12.3535 19.3131 12.3604 19.3163C14.5138 20.292 16.8808 20.292 19.073 19.3163C19.0801 19.3129 19.0881 19.3116 19.0958 19.3125C19.1035 19.3134 19.1108 19.3164 19.1168 19.3213C19.1818 19.3755 19.2496 19.4291 19.3186 19.4806C19.324 19.4846 19.3283 19.49 19.3311 19.4962C19.3338 19.5024 19.335 19.5092 19.3344 19.516C19.3339 19.5229 19.3316 19.5295 19.3279 19.5354C19.3241 19.5413 19.319 19.5462 19.3129 19.5497C18.9738 19.74 18.6224 19.901 18.2545 20.0348C18.2489 20.0368 18.2437 20.04 18.2393 20.0441C18.2349 20.0482 18.2314 20.0532 18.2291 20.0587C18.2267 20.0642 18.2256 20.0701 18.2257 20.076C18.2258 20.0819 18.2272 20.0876 18.2298 20.0929C18.4176 20.4729 18.635 20.8346 18.8757 21.1781C18.8807 21.1852 18.8879 21.1905 18.8961 21.1932C18.9044 21.196 18.9134 21.1961 18.922 21.1936C20.1328 20.835 21.2806 20.2775 22.3168 19.5447C22.3218 19.5413 22.3261 19.5369 22.3294 19.5317C22.3326 19.5266 22.3347 19.5208 22.3356 19.5149C22.7068 16.6972 22.043 14.249 20.6057 12.0796C20.6023 12.0725 20.5963 12.067 20.589 12.0641ZM13.5483 18.0302C12.8904 18.0302 12.3673 17.4389 12.3912 16.7138C12.4152 15.9881 12.9667 15.3973 13.6351 15.3973C14.3086 15.3973 14.8265 15.993 14.7922 16.7138C14.7682 17.4395 14.2167 18.0302 13.5483 18.0302ZM17.9867 18.0302C17.3283 18.0302 16.8058 17.4389 16.8297 16.7138C16.8536 15.9881 17.4046 15.3973 18.0736 15.3973C18.747 15.3973 19.265 15.993 19.2306 16.7138C19.2067 17.4395 18.6607 18.0302 17.9867 18.0302Z" fill="white"/>
</g>
<defs>
<filter id="filter0_f_202_199" x="0.13721" y="0.584475" width="31.4092" height="31.3818" filterUnits="userSpaceOnUse" color-interpolation-filters="sRGB">
<feFlood flood-opacity="0" result="BackgroundImageFix"/>
<feBlend mode="normal" in="SourceGraphic" in2="BackgroundImageFix" result="shape"/>
<feGaussianBlur stdDeviation="1.48413" result="effect1_foregroundBlur_202_199"/>
</filter>
<clipPath id="clip0_202_199">
<rect width="13.3572" height="13.2825" fill="white" transform="matrix(1 0 -0.0329807 0.999456 9.36328 9.57812)"/>
</clipPath>
</defs>
</svg>
