<svg width="32" height="32" viewBox="0 0 32 32" fill="none" xmlns="http://www.w3.org/2000/svg">
<path d="M3.27672 15.7291C3.27672 8.85184 8.85184 3.27672 15.7291 3.27672C22.6064 3.27672 28.1815 8.85184 28.1815 15.7291C28.1815 22.6064 22.6064 28.1815 15.7291 28.1815C8.85184 28.1815 3.27672 22.6064 3.27672 15.7291Z" stroke="white" stroke-width="0.553439"/>
<g filter="url(#filter0_f_202_161)">
<path d="M3.27672 15.7291C3.27672 8.85184 8.85184 3.27672 15.7291 3.27672C22.6064 3.27672 28.1815 8.85184 28.1815 15.7291C28.1815 22.6064 22.6064 28.1815 15.7291 28.1815C8.85184 28.1815 3.27672 22.6064 3.27672 15.7291Z" stroke="white" stroke-width="0.553439"/>
</g>
<g clip-path="url(#clip0_202_161)">
<path d="M22.2464 11.8211C21.7816 12.0259 21.2824 12.1643 20.7576 12.2268C21.2991 11.9046 21.7043 11.3975 21.8974 10.8C21.3886 11.1006 20.8318 11.3121 20.2511 11.4254C19.8607 11.0108 19.3434 10.736 18.7798 10.6437C18.2162 10.5513 17.6376 10.6466 17.134 10.9147C16.6304 11.1829 16.23 11.6088 15.9947 12.1265C15.7595 12.6441 15.7028 13.2245 15.8333 13.7775C14.8024 13.7261 13.7939 13.4596 12.8732 12.9955C11.9526 12.5313 11.1404 11.8799 10.4893 11.0834C10.2667 11.4653 10.1387 11.908 10.1387 12.3796C10.1384 12.804 10.2435 13.222 10.4447 13.5964C10.6458 13.9708 10.9368 14.2901 11.2918 14.5258C10.8801 14.5128 10.4775 14.4022 10.1175 14.2031V14.2363C10.1175 14.8317 10.3246 15.4087 10.7037 15.8695C11.0827 16.3304 11.6105 16.6465 12.1973 16.7645C11.8154 16.8672 11.415 16.8824 11.0263 16.8087C11.1919 17.321 11.5144 17.769 11.9488 18.0899C12.3831 18.4108 12.9074 18.5887 13.4484 18.5986C12.53 19.3155 11.3958 19.7044 10.2283 19.7027C10.0214 19.7027 9.81478 19.6907 9.60938 19.6667C10.7945 20.4245 12.1741 20.8266 13.5831 20.825C18.3528 20.825 20.9602 16.8967 20.9602 13.4898C20.9602 13.3791 20.9574 13.2673 20.9524 13.1566C21.4596 12.7919 21.8974 12.3402 22.2453 11.8228L22.2464 11.8211Z" fill="white"/>
</g>
<defs>
<filter id="filter0_f_202_161" x="0.0317409" y="0.0317409" width="31.3955" height="31.3955" filterUnits="userSpaceOnUse" color-interpolation-filters="sRGB">
<feFlood flood-opacity="0" result="BackgroundImageFix"/>
<feBlend mode="normal" in="SourceGraphic" in2="BackgroundImageFix" result="shape"/>
<feGaussianBlur stdDeviation="1.48413" result="effect1_foregroundBlur_202_161"/>
</filter>
<clipPath id="clip0_202_161">
<rect width="13.3572" height="13.2825" fill="white" transform="translate(9.08789 9.08789)"/>
</clipPath>
</defs>
</svg>
