<svg width="33" height="32" viewBox="0 0 33 32" fill="none" xmlns="http://www.w3.org/2000/svg">
<rect x="0.267593" y="0.276569" width="24.9048" height="24.9048" rx="12.4524" transform="matrix(1 0 -0.0329807 0.999456 4.00522 3.55288)" stroke="white" stroke-width="0.553439"/>
<g filter="url(#filter0_f_202_207)">
<rect x="0.267593" y="0.276569" width="24.9048" height="24.9048" rx="12.4524" transform="matrix(1 0 -0.0329807 0.999456 4.00522 3.55288)" stroke="white" stroke-width="0.553439"/>
</g>
<path fill-rule="evenodd" clip-rule="evenodd" d="M16.2772 11.0194C16.0291 11.1183 15.915 11.3382 15.9016 11.7433C15.8916 12.0478 15.8726 12.121 15.8038 12.121C15.7569 12.121 15.4345 12.0446 15.0874 11.9512C14.6592 11.836 14.4378 11.7994 14.3985 11.8374C14.3592 11.8755 14.4187 12.0656 14.5836 12.429C15.3079 14.0252 15.5821 15.4304 15.3432 16.3205C15.2137 16.803 14.9376 17.3575 14.4899 18.0338C14.2106 18.4559 14.1461 18.5896 14.1932 18.6486C14.2384 18.7054 14.4288 18.7241 14.9623 18.7241H15.6713L15.6548 19.2231L15.6383 19.7223L14.7993 19.7046C13.8583 19.6849 13.6691 19.6295 13.4647 19.3138C13.4005 19.2148 13.333 18.9983 13.3146 18.8326L13.2812 18.5315H11.7404H10.1996L10.1726 18.8494C10.1095 19.5909 10.4273 20.3591 11.0794 21.0416C11.5653 21.5501 12.0213 21.8228 12.646 21.9783C13.0806 22.0866 18.794 22.0874 19.1035 21.9793C19.3532 21.892 19.9225 21.3954 20.2172 21.0077C20.3322 20.8564 20.5996 20.4725 20.8114 20.1547C21.2757 19.4578 21.4431 19.2961 22.0073 18.9985L22.4416 18.7695L22.4549 18.3649C22.4623 18.1423 22.445 17.9455 22.4164 17.9275C22.388 17.9096 21.6714 18.0939 20.8241 18.3371L19.2835 18.7794L18.8729 19.1651C18.34 19.6655 18.2137 19.7145 17.4572 19.7145H16.8498L16.8661 19.2193L16.8825 18.7241H17.2698C17.7472 18.7241 17.8183 18.682 18.3713 18.0728C19.1286 17.2385 19.4855 16.5872 19.5048 16.0045C19.521 15.5117 19.2273 14.7773 18.7675 14.1608C18.5389 13.8544 17.7337 13.0199 17.33 12.6712L17.1159 12.4862L17.1072 11.9141L17.0986 11.3421L16.8991 11.1538C16.6956 10.9616 16.5184 10.9234 16.2772 11.0194ZM12.3488 15.1591C11.5892 16.2876 10.9641 17.2604 10.9596 17.3209C10.9519 17.4283 10.9869 17.431 12.3831 17.431H13.8145L14.137 16.8341L14.4595 16.2371L14.4761 15.596C14.4898 15.0647 14.4697 14.8699 14.3589 14.4596C14.1742 13.775 13.9171 13.1436 13.8151 13.1239C13.7558 13.1124 13.3093 13.7322 12.3488 15.1591Z" fill="white"/>
<defs>
<filter id="filter0_f_202_207" x="0.6001" y="0.584475" width="31.4092" height="31.3818" filterUnits="userSpaceOnUse" color-interpolation-filters="sRGB">
<feFlood flood-opacity="0" result="BackgroundImageFix"/>
<feBlend mode="normal" in="SourceGraphic" in2="BackgroundImageFix" result="shape"/>
<feGaussianBlur stdDeviation="1.48413" result="effect1_foregroundBlur_202_207"/>
</filter>
</defs>
</svg>
